<?xml version="1.0" encoding="utf-8"?>
<!-- Generator: Adobe Illustrator 19.0.0, SVG Export Plug-In . SVG Version: 6.00 Build 0)  -->
<!DOCTYPE svg PUBLIC "-//W3C//DTD SVG 1.1//EN" "http://www.w3.org/Graphics/SVG/1.1/DTD/svg11.dtd">
<svg version="1.1" id="Layer_1" xmlns="http://www.w3.org/2000/svg" xmlns:xlink="http://www.w3.org/1999/xlink" x="0px" y="0px"
	 width="1152px" height="1152px" viewBox="0 0 1152 1152" enable-background="new 0 0 1152 1152" xml:space="preserve">
<path id="XMLID_9_" d="M82.6,937.2l362-362L84,214.8c-14.1-14.1-14.1-36.9,0-51l81.2-81.2c14.1-14.1,36.9-14.1,51,0l360.5,360.5
	L937.2,82.6c14.1-14.1,36.9-14.1,51,0l81.2,81.2c14.1,14.1,14.1,36.9,0,51L708.9,575.3l360.5,360.5c14.1,14.1,14.1,36.9,0,51
	l-81.2,81.2c-14.1,14.1-36.9,14.1-51,0L576.7,707.5l-362,362c-14.1,14.1-36.9,14.1-51,0l-81.2-81.2
	C68.5,974.2,68.5,951.3,82.6,937.2z"/>
</svg>
